<?xml version="1.0" encoding="UTF-8"?>
<svg id="Layer_1" data-name="Layer 1" xmlns="http://www.w3.org/2000/svg" viewBox="0 0 100 100">
  <path d="M57.89,6.53l-1.47,1.47c2.53.28,2.7,1.66,2.46,3.94,1.41.45,1.93-1.13,2.81-1.4,1.38-.42,3.37,1.34,3.09-.57,1.81,1.21,3.79,2.19,5.42,3.68,6.61,6.07,2.28,5.98-4.19,6.64-1.39.14-5.72-.56-6.12.79,2.62,5.91,4.96,11.91,7.36,17.9-.52,3.12-1.94,2.22-3.62,2.96s1.4,2.24,1.58,2.77c.38,1.16-.47,2.76.81,3.6,1.51-1.28,2.34-2.46,4.18-.97.42,1.15,1.47,2.71,1.98,4.17,1.77,5.11,3.55,10.26,4.91,15.51-.67.03-2.06,1.38-2.95,1.72-14.43,5.48-33.38,5.6-47.86.14-1.03-.39-2.64-1.81-3.31-1.86,2.28-9.79,6.08-19.23,9.84-28.53,3.95,2.96,2.23.25,3.2-1.96.69-1.58,3.92-1.95-.74-3.45,2.96-6.71,7.73-20.74,13.61-25,3.39-2.46,5.12-2.28,9.02-1.56ZM52.59,28.05c-.35-.34-.99-3.14-2.08-2.34-.1.07-.19,1.76-.99,2.22-.61.35-2.91.15-2.94.98,0,.25,1.21,1.47,1.37,2.1.27,1.03-.2,1.49-.21,2.04,0,2.12,2.11.02,3,.05.82.03,1.6,1.3,2.7.97-.74-2.78,1.27-3.28,1.97-5.41-.84-.04-2.21-.02-2.83-.62ZM45.59,56.21c-.63-3.32-.49-4.41,1.48-7.12-.89-1.37-2.82-.31-3.95-.98-.74-.44-.98-3.01-2.2-2.71-.73.18-.89,2.33-1.48,2.95-.82.86-3.99.78-3.68,2.2.17.8,2.2,1.59,2.35,1.84.39.68-.05,2.18.1,3.1.42,2.61,2.59-.43,3.69-.54.93-.09,3.33,1.67,3.69,1.28ZM59.36,58.18c-1.45-1.23-2.36,2.29-2.53,2.39-.71.43-2.68-.49-3.37.82,1.8,2.25,1.88,2.68,1.48,5.65,1.08.34,2.01-.8,2.78-.87,1.08-.1,3.25,2.22,3.6.6.39-1.8-1.25-2.91,1.96-4.89-.69-1.08-2.63-.65-3.32-1.34-.56-.56-.51-2.27-.61-2.35Z" fill="#263e39"/>
  <path d="M21.98,67.53c-1.08,4.24-1.71,6.09,2.3,8.77,10.16,6.79,41.8,6.91,51.79-.2,3.83-2.73,2.96-4.5,2-8.58,7.47,1.07,23.8,7.63,13.78,16.49-6.69,5.91-22.84,8.78-31.74,9.58-13.36,1.2-40.7-.43-51.36-9.14-11.13-9.09,5.42-15.58,13.24-16.93Z" fill="#263e39"/>
  <path d="M70.19,47.36c-1.84-1.49-2.68-.31-4.18.97-1.28-.84-.44-2.45-.81-3.6-.17-.53-3.25-2.04-1.58-2.77s3.11.16,3.62-2.96c1.29,3.23,1.9,5.47,2.95,8.36Z" fill="#87bd45"/>
  <path d="M85.92,48.83c.09.09.16,1.56.76,2.45.68,1.02,1.85,1.4,2.68,2.23-.63.71-1.6.99-2.23,1.7s-1.41,3.8-2.18,2.98c-.11-.12-.34-2.23-.98-3.08-.68-.91-2.17-.84-2.47-1.83,1.41-.26,2.34-1.49,3.06-2.61.27-.41.34-2.81,1.36-1.82Z" fill="#87bd45"/>
  <path d="M13.61,61.62l-1.73-3.42-2.19-1.74c1.79-.98,3.46-2.45,3.45-4.67,1.01.62,1.1,2.18,1.95,3.2.5.6,1.47.82,1.97,1.47-1.44,1.58-3.5,2.76-3.44,5.16Z" fill="#87bd45"/>
  <path d="M64.77,9.97c.28,1.9-1.7.14-3.09.57-.88.27-1.4,1.85-2.81,1.4.24-2.28.07-3.67-2.46-3.94l1.47-1.47c4.37.81,3.77,1.36,6.89,3.44Z" fill="#87bd45"/>
  <path d="M33.29,14.9c-.17.91-1.49.65-2.2,1.48s-.64,3.6-1.76,2.15c-.72-.93-.89-3.09-2.92-3.15,1.29-1.49,2.77-2.15,2.96-4.42,1.44,1.24,1.61,3.6,3.93,3.94Z" fill="#87bd45"/>
  <path d="M32.8,38.5c.92-2.28,1.68-3.64,2.46-5.41,4.66,1.5,1.44,1.87.74,3.45-.97,2.21.75,4.92-3.2,1.96Z" fill="#87bd45"/>
  <path d="M45.59,56.21c-.36.4-2.76-1.37-3.69-1.28-1.1.11-3.27,3.16-3.69.54-.15-.92.29-2.42-.1-3.1-.14-.25-2.17-1.04-2.35-1.84-.31-1.42,2.86-1.34,3.68-2.2.59-.62.75-2.77,1.48-2.95,1.22-.29,1.46,2.27,2.2,2.71,1.12.67,3.06-.38,3.95.98-1.97,2.71-2.11,3.8-1.48,7.12Z" fill="#87bd45"/>
  <path d="M59.36,58.18c.09.08.05,1.8.61,2.35.7.69,2.64.26,3.32,1.34-3.22,1.98-1.57,3.09-1.96,4.89-.35,1.61-2.53-.71-3.6-.6-.77.07-1.7,1.22-2.78.87.41-2.97.32-3.39-1.48-5.65.69-1.31,2.66-.39,3.37-.82.17-.1,1.07-3.61,2.53-2.39Z" fill="#87bd45"/>
  <path d="M52.59,28.05c.62.6,1.99.58,2.83.62-.7,2.13-2.71,2.63-1.97,5.41-1.1.33-1.88-.94-2.7-.97-.89-.03-3.01,2.07-3-.05,0-.56.47-1.01.21-2.04-.16-.63-1.38-1.85-1.37-2.1.03-.83,2.34-.63,2.94-.98.79-.46.89-2.14.99-2.22,1.09-.8,1.73,2,2.08,2.34Z" fill="#87bd45"/>
</svg>