<?xml version="1.0" encoding="UTF-8"?>
<svg id="Layer_1" data-name="Layer 1" xmlns="http://www.w3.org/2000/svg" viewBox="0 0 100 100">
  <path d="M6.99,36.14c1.96-6.05,5.2-11.6,9.47-16.3.72-.8,1.85-1.08,2.87-.72l10.2,3.63c2.77.98,5.81-.45,6.8-3.2.1-.27.17-.55.22-.83l1.94-10.62c.19-1.06,1.01-1.89,2.06-2.11,3.08-.65,6.25-.99,9.45-.99s6.36.33,9.45.99c1.05.22,1.87,1.06,2.06,2.11l1.95,10.62c.53,2.88,3.3,4.78,6.18,4.26.28-.05.56-.13.84-.22l10.2-3.63c1.01-.36,2.15-.08,2.87.72,4.27,4.7,7.5,10.25,9.47,16.3.33,1.02.01,2.14-.81,2.83l-8.27,6.99c-2.24,1.89-2.51,5.23-.61,7.46.19.22.39.42.61.61l8.27,6.99c.82.69,1.14,1.81.81,2.83-1.96,6.05-5.2,11.6-9.47,16.3-.72.8-1.85,1.08-2.87.72l-10.2-3.63c-2.76-.98-5.81.45-6.8,3.2-.1.27-.17.55-.22.83l-1.95,10.62c-.19,1.06-1.01,1.89-2.06,2.11-3.08.65-6.24.99-9.45.99s-6.37-.33-9.45-.99c-1.05-.22-1.87-1.06-2.06-2.11l-1.94-10.62c-.53-2.88-3.3-4.78-6.18-4.26-.28.05-.56.13-.83.22l-10.2,3.63c-1.01.36-2.15.08-2.87-.72-4.27-4.7-7.5-10.25-9.47-16.3-.33-1.02-.01-2.14.81-2.83l8.27-6.99c2.24-1.89,2.51-5.23.61-7.46-.19-.22-.39-.42-.61-.61l-8.27-6.99c-.82-.69-1.14-1.81-.81-2.83ZM36.87,50c0,7.25,5.88,13.13,13.13,13.13s13.13-5.88,13.13-13.13-5.88-13.13-13.13-13.13-13.13,5.88-13.13,13.13Z" fill="#263e39"/>
</svg>