<?xml version="1.0" encoding="UTF-8"?>
<svg id="Layer_1" data-name="Layer 1" xmlns="http://www.w3.org/2000/svg" viewBox="0 0 100 100">
  <g>
    <path d="M88.83,30.55H28.21c-3.41,0-6.17-2.76-6.17-6.17s2.76-6.17,6.17-6.17h60.61c3.41,0,6.17,2.76,6.17,6.17s-2.76,6.17-6.17,6.17Z" fill="#263e39"/>
    <circle cx="11.17" cy="24.38" r="6.17" fill="#263e39"/>
  </g>
  <g>
    <path d="M88.83,56.17H28.21c-3.41,0-6.17-2.76-6.17-6.17s2.76-6.17,6.17-6.17h60.61c3.41,0,6.17,2.76,6.17,6.17s-2.76,6.17-6.17,6.17Z" fill="#263e39"/>
    <circle cx="11.17" cy="50" r="6.17" fill="#263e39"/>
  </g>
  <g>
    <path d="M88.83,81.8H28.21c-3.41,0-6.17-2.76-6.17-6.17s2.76-6.17,6.17-6.17h60.61c3.41,0,6.17,2.76,6.17,6.17s-2.76,6.17-6.17,6.17Z" fill="#263e39"/>
    <circle cx="11.17" cy="75.62" r="6.17" fill="#263e39"/>
  </g>
</svg>