<?xml version="1.0" encoding="UTF-8"?>
<svg id="Layer_1" data-name="Layer 1" xmlns="http://www.w3.org/2000/svg" viewBox="0 0 100 100">
  <path d="M77.06,19.72c.63.63,4.95,4.63,4.88,4.97l-5.67,6c5.62,3.92,10.75,8.41,15.04,13.77.66.82,3.47,4.42,3.64,5.1s-.04.78-.25,1.28c-.67,1.57-3.94,5.36-5.21,6.84-14.07,16.48-35.62,24.36-56.53,16.13l-7.91,7.82c-.25.22-.41.13-.66,0-.36-.18-5.41-5.24-5.71-5.69-.15-.22-.35-.39-.34-.69,18.57-19.09,38.01-37.67,56.75-56.75.94-.86,1.44.68,1.99,1.23ZM41.44,65.71c2.04.52,4.11,1.73,6.23,1.98,14.39,1.7,25.04-13.5,17.87-26.25-.25-.33-.46.18-.67.34-.53.4-4.21,4.11-4.3,4.43-.28.99.54,2.82.54,3.94.02,5.86-5.35,10.93-11.14,10.88-1.01,0-3.04-.86-3.84-.51-.28.12-4.09,3.95-4.37,4.36-.19.28-.47.33-.33.84Z" fill="#263e39"/>
  <path d="M57.5,23.53l-8.19,8.37c-9.43,1.45-16.01,7.68-17.23,17.25l-14.92,14.87-6.16-5.95c-.92-1.05-6.11-7.42-5.99-8.21,10.98-17.53,31.24-30.2,52.5-26.33Z" fill="#263e39"/>
</svg>