<?xml version="1.0" encoding="UTF-8"?>
<svg id="Layer_1" data-name="Layer 1" xmlns="http://www.w3.org/2000/svg" viewBox="0 0 435.13 170.61">
  <g>
    <path d="M17.28,110.72c0-17.49,13.52-30.75,31.44-30.75,14.21,0,26.01,8.36,29.2,20.07h-14.9c-2.93-4.39-8.1-7.24-14.3-7.24-10.08,0-17.74,7.67-17.74,17.92s7.67,17.92,17.74,17.92c7.49,0,13.7-4.05,16.02-10.16h-14.21v-12.06h28.77v4.57c0,17.4-12.83,30.49-30.58,30.49s-31.44-13.26-31.44-30.75Z" fill="#f1f5f5"/>
    <path d="M87.13,96.51h12.58v6.12c3.36-4.31,7.92-6.8,13.26-6.8h1.72v12.92h-1.72c-8.53,0-13.26,4.39-13.26,11.2v20.5h-12.58v-43.93Z" fill="#f1f5f5"/>
    <path d="M117.1,118.47c0-13.09,10.16-23,23.69-23s23.69,9.9,23.69,23-10.16,23-23.69,23-23.69-9.91-23.69-23ZM151.55,118.47c0-6.2-4.57-10.85-10.77-10.85s-10.77,4.65-10.77,10.85,4.57,10.85,10.77,10.85,10.77-4.65,10.77-10.85Z" fill="#f1f5f5"/>
    <path d="M171.19,124.93v-28.43h12.58v24.64c0,4.91,3.1,8.18,7.84,8.18,5.08,0,8.53-3.36,8.53-8.35v-24.46h12.58v43.93h-12.58v-4.31c-3.27,3.53-7.58,5.34-12.75,5.34-9.73,0-16.19-6.55-16.19-16.54Z" fill="#f1f5f5"/>
    <path d="M222.69,96.51h12.58v4.31c3.44-3.53,7.92-5.34,13.35-5.34,10.08,0,16.8,6.63,16.8,16.71v28.25h-12.58v-24.03c0-5.34-3.36-8.79-8.44-8.79-5.43,0-9.13,3.53-9.13,8.96v23.86h-12.58v-43.93Z" fill="#f1f5f5"/>
    <path d="M272.73,118.47c0-13.09,9.13-23,21.19-23,5.34,0,9.9,1.98,13.26,5.43v-22.48h12.58v62.02h-12.58v-4.39c-3.36,3.44-7.92,5.43-13.26,5.43-12.06,0-21.19-9.91-21.19-23ZM307.18,118.47c0-6.2-4.57-10.85-10.77-10.85s-10.68,4.65-10.68,10.85,4.57,10.85,10.68,10.85,10.77-4.65,10.77-10.85Z" fill="#f1f5f5"/>
    <path d="M327.93,131.3l18.95-22.65h-18.6v-12.15h37.12v9.13l-18.95,22.65h19.55v12.15h-38.07v-9.13Z" fill="#f1f5f5"/>
    <path d="M386.84,139.92l-17.66-43.41h14.38l10.16,27.91,10.08-27.91h14.04l-24.55,60.3h-13.44l6.98-16.88Z" fill="#f1f5f5"/>
  </g>
  <g>
    <polygon points="217.57 9.79 193.23 49.97 241.9 49.97 217.57 9.79" fill="#88bd4a"/>
    <polygon points="200.99 21.27 176.66 63.42 225.33 63.42 200.99 21.27" fill="#88bd4a"/>
    <polygon points="234.14 21.27 209.8 63.42 258.47 63.42 234.14 21.27" fill="#88bd4a"/>
  </g>
</svg>