<?xml version="1.0" encoding="UTF-8"?>
<svg id="Layer_1" data-name="Layer 1" xmlns="http://www.w3.org/2000/svg" viewBox="0 0 100 100">
  <path d="M58.08,5.48l-1.51,1.5c2.59.28,2.77,1.7,2.52,4.04,1.44.47,1.97-1.16,2.88-1.43,1.42-.43,3.45,1.37,3.16-.58,1.85,1.24,3.88,2.24,5.55,3.77,6.77,6.22,2.34,6.12-4.29,6.8-1.42.15-5.86-.57-6.27.81,2.69,6.05,5.08,12.19,7.53,18.33-.53,3.19-1.99,2.28-3.71,3.03s1.44,2.29,1.62,2.84c.39,1.19-.48,2.83.83,3.69,1.54-1.31,2.39-2.52,4.28-1,.43,1.18,1.51,2.78,2.02,4.27,1.81,5.24,3.64,10.51,5.03,15.88-.69.03-2.11,1.42-3.02,1.76-14.78,5.62-34.18,5.74-49,.14-1.05-.4-2.7-1.85-3.39-1.9,2.33-10.02,6.22-19.69,10.08-29.22,4.05,3.03,2.28.26,3.28-2.01.71-1.62,4.01-2-.76-3.53,3.03-6.87,7.92-21.23,13.94-25.6,3.47-2.52,5.24-2.34,9.23-1.6ZM52.66,27.52c-.36-.35-1.02-3.21-2.13-2.39-.1.07-.2,1.8-1.01,2.27-.62.36-2.98.15-3.01,1,0,.26,1.24,1.51,1.4,2.15.27,1.06-.21,1.52-.21,2.09-.01,2.17,2.16.02,3.08.05.84.03,1.64,1.33,2.77.99-.76-2.84,1.3-3.36,2.02-5.54-.86-.04-2.27-.02-2.9-.63ZM45.48,56.36c-.64-3.4-.5-4.51,1.52-7.29-.91-1.4-2.89-.32-4.04-1.01-.75-.45-1-3.08-2.25-2.78-.75.18-.91,2.38-1.52,3.02-.84.88-4.09.8-3.77,2.25.18.82,2.26,1.63,2.4,1.88.4.7-.05,2.23.1,3.18.43,2.68,2.66-.45,3.78-.56.96-.1,3.41,1.71,3.78,1.31ZM59.58,58.38c-1.49-1.26-2.42,2.34-2.59,2.44-.73.44-2.74-.5-3.45.84,1.84,2.31,1.93,2.74,1.51,5.78,1.11.35,2.06-.82,2.85-.9,1.1-.11,3.33,2.27,3.69.62.4-1.85-1.28-2.98,2.01-5.01-.7-1.11-2.69-.66-3.4-1.37-.58-.57-.53-2.33-.62-2.41Z" fill="#232f29"/>
  <path d="M21.3,67.95c-1.11,4.34-1.75,6.24,2.35,8.98,10.4,6.95,42.8,7.08,53.03-.2,3.92-2.79,3.04-4.61,2.05-8.78,7.65,1.1,24.37,7.81,14.11,16.88-6.85,6.06-23.39,8.99-32.5,9.81-13.68,1.23-41.68-.44-52.6-9.36-11.39-9.31,5.55-15.95,13.56-17.34Z" fill="#232f29"/>
  <path d="M70.67,47.3c-1.89-1.52-2.74-.31-4.28,1-1.31-.86-.45-2.5-.83-3.69-.18-.55-3.33-2.09-1.62-2.84s3.18.16,3.71-3.03c1.32,3.3,1.95,5.6,3.02,8.56Z" fill="#87bd45"/>
  <path d="M86.79,48.81c.09.09.17,1.6.78,2.5.7,1.04,1.89,1.44,2.75,2.28-.64.72-1.64,1.02-2.28,1.74s-1.45,3.89-2.24,3.05c-.11-.12-.34-2.28-1-3.15-.7-.93-2.22-.86-2.53-1.88,1.45-.26,2.4-1.53,3.14-2.68.27-.42.35-2.88,1.39-1.87Z" fill="#87bd45"/>
  <path d="M12.73,61.9l-1.78-3.5-2.25-1.78c1.83-1,3.54-2.51,3.53-4.78,1.03.64,1.12,2.23,2,3.28.51.62,1.5.84,2.01,1.5-1.47,1.62-3.58,2.83-3.52,5.29Z" fill="#87bd45"/>
  <path d="M65.13,9.01c.29,1.95-1.75.15-3.16.58-.91.28-1.44,1.9-2.88,1.43.25-2.34.07-3.75-2.52-4.04l1.51-1.5c4.48.83,3.86,1.4,7.05,3.53Z" fill="#87bd45"/>
  <path d="M32.89,14.05c-.18.93-1.53.66-2.25,1.51s-.65,3.69-1.81,2.2c-.74-.95-.91-3.16-2.99-3.22,1.32-1.52,2.83-2.21,3.03-4.52,1.47,1.27,1.65,3.68,4.02,4.04Z" fill="#87bd45"/>
  <path d="M32.38,38.23c.94-2.33,1.72-3.72,2.52-5.54,4.77,1.54,1.47,1.92.76,3.53-1,2.27.76,5.04-3.28,2.01Z" fill="#87bd45"/>
  <path d="M45.48,56.36c-.37.41-2.82-1.4-3.78-1.31-1.13.11-3.35,3.23-3.78.56-.15-.95.3-2.48-.1-3.18-.15-.26-2.23-1.06-2.4-1.88-.32-1.45,2.93-1.37,3.77-2.25.61-.64.77-2.84,1.52-3.02,1.25-.3,1.5,2.33,2.25,2.78,1.15.69,3.14-.39,4.04,1.01-2.02,2.78-2.16,3.89-1.52,7.29Z" fill="#87bd45"/>
  <path d="M59.58,58.38c.1.08.05,1.84.62,2.41.71.71,2.7.26,3.4,1.37-3.29,2.02-1.61,3.16-2.01,5.01-.36,1.65-2.59-.72-3.69-.62-.79.08-1.74,1.25-2.85.9.42-3.04.33-3.48-1.51-5.78.71-1.34,2.72-.4,3.45-.84.17-.1,1.1-3.7,2.59-2.44Z" fill="#87bd45"/>
  <path d="M52.66,27.52c.63.61,2.04.59,2.9.63-.72,2.18-2.78,2.69-2.02,5.54-1.13.34-1.92-.96-2.77-.99-.92-.03-3.09,2.12-3.08-.05,0-.57.48-1.03.21-2.09-.17-.64-1.41-1.9-1.4-2.15.03-.85,2.39-.64,3.01-1,.81-.47.91-2.2,1.01-2.27,1.11-.82,1.77,2.05,2.13,2.39Z" fill="#87bd45"/>
</svg>