<?xml version="1.0" encoding="UTF-8"?>
<svg id="Layer_1" data-name="Layer 1" xmlns="http://www.w3.org/2000/svg" viewBox="0 0 100 100">
  <g>
    <g>
      <path d="M31.6,13.28c-8.22,0-14.91,6.69-14.91,14.91,0,4.96,2.44,9.36,6.17,12.06,1.36.99,2.9,1.76,4.55,2.24.03,0,.05,0,.07-.01.3-.05.6-.1.9-.14.4-.06.81-.1,1.22-.13.27-.03.53-.05.8-.05.05,0,.11,0,.17,0,.34-.02.68-.03,1.02-.03s.68,0,1.02.03c.05,0,.11,0,.17,0,.27,0,.54.03.81.05.13,0,.25.02.37.03.26.03.52.05.78.09.32.04.64.09.96.15.02,0,.05,0,.07.01,1.66-.48,3.19-1.24,4.55-2.24,3.73-2.7,6.17-7.11,6.17-12.06,0-8.22-6.69-14.91-14.9-14.91ZM35.54,39.07c-1.23.45-2.56.69-3.94.69s-2.72-.24-3.94-.69c-4.45-1.62-7.63-5.87-7.63-10.88,0-6.39,5.18-11.57,11.57-11.57s11.57,5.18,11.57,11.57c0,5.01-3.18,9.26-7.62,10.88Z" fill="#f5f5f5"/>
      <path d="M43.16,28.19c0,5.01-3.18,9.26-7.62,10.88-1.23.45-2.56.69-3.94.69s-2.72-.24-3.94-.69c-4.45-1.62-7.63-5.87-7.63-10.88,0-6.39,5.18-11.57,11.57-11.57s11.57,5.18,11.57,11.57Z" fill="#263e39"/>
    </g>
    <g>
      <path d="M40.33,40.25c-1.54-.54-3.14-.93-4.79-1.18-1.23.45-2.56.69-3.94.69s-2.72-.24-3.94-.69c-1.66.25-3.26.64-4.79,1.18-10.39,3.62-17.86,13.51-17.86,25.12v3.34h53.19v-3.34c0-11.61-7.47-21.5-17.85-25.12ZM8.34,65.37c0-.35,0-.69.03-1.03,0-.06,0-.11,0-.17.01-.27.03-.55.05-.81,0-.13.02-.25.03-.37.03-.26.06-.52.09-.78.05-.34.1-.68.16-1.02.06-.34.13-.67.21-1.01.16-.71.36-1.41.59-2.1.09-.28.19-.55.29-.83.12-.32.24-.63.37-.94.1-.23.2-.47.31-.69.05-.11.11-.23.16-.33.01-.04.03-.08.06-.12.11-.23.21-.45.33-.66.13-.24.25-.48.39-.71.07-.13.15-.26.23-.39.13-.21.25-.42.39-.62.15-.24.31-.48.48-.71.03-.06.08-.11.11-.17.18-.25.37-.49.55-.73.15-.2.31-.39.47-.59.24-.29.48-.57.73-.85.11-.12.22-.24.33-.36.29-.31.59-.61.9-.89.11-.11.23-.21.34-.32,0,0,.01-.01.03-.03.2-.18.41-.36.62-.54.25-.21.51-.42.77-.62h0c.25-.19.49-.38.75-.56.03-.02.05-.04.08-.05.26-.19.52-.37.79-.53.27-.18.56-.36.85-.53.21-.13.44-.25.66-.37.17-.09.33-.17.49-.26.2-.1.41-.2.61-.3.24-.12.49-.23.74-.33.6-.27,1.22-.5,1.85-.71.15-.05.29-.1.44-.15,0,0,.01,0,.03,0,.23-.07.47-.15.7-.21.67-.19,1.34-.34,2.03-.47.03,0,.05,0,.07-.01.3-.05.6-.1.9-.14.4-.06.81-.1,1.22-.13.27-.03.53-.05.8-.05.05,0,.11,0,.17,0,.34-.02.68-.03,1.02-.03s.68,0,1.02.03c.05,0,.11,0,.17,0,.27,0,.54.03.81.05.13,0,.25.02.37.03.26.03.52.05.78.09.32.04.64.09.96.15.02,0,.05,0,.07.01.57.1,1.12.23,1.67.37.17.05.33.09.49.13.19.05.39.11.57.17.15.05.31.09.45.15.03,0,.06.01.09.03.22.07.44.15.65.23.38.15.75.29,1.12.46.25.1.49.21.74.33.29.13.58.28.86.43.02,0,.04.01.06.03.29.15.57.31.85.47.27.15.53.32.79.49.2.13.4.26.59.39.11.07.22.15.33.23.66.47,1.29.97,1.9,1.51.23.2.45.41.67.62.14.12.27.25.4.39.13.13.27.26.39.4.27.27.51.55.75.83.13.14.25.28.36.43.16.19.32.39.47.58.19.24.37.48.54.73.05.07.1.14.15.21.14.19.27.39.39.58.15.23.29.45.43.69.09.14.17.28.25.43.15.26.3.53.44.8.09.17.18.35.26.52.03.05.06.11.09.17.06.11.11.22.16.33.11.23.21.46.31.69.13.31.26.63.37.94.08.22.16.43.23.65.25.74.47,1.5.64,2.27.07.33.15.67.21,1.01.06.34.11.68.16,1.02.03.26.07.52.09.78.01.12.03.24.03.37.03.27.04.54.05.81,0,.05,0,.11,0,.17.02.34.03.68.03,1.03H8.34Z" fill="#f5f5f5"/>
      <path d="M54.85,65.37H8.34c0-.35,0-.69.03-1.03,0-.06,0-.11,0-.17.01-.27.03-.55.05-.81,0-.13.02-.25.03-.37.03-.26.06-.52.09-.78.05-.34.1-.68.16-1.02.06-.34.13-.67.21-1.01.16-.71.36-1.41.59-2.1.09-.28.19-.55.29-.83.12-.32.24-.63.37-.94.1-.23.2-.47.31-.69.05-.11.11-.23.16-.33.01-.04.03-.08.06-.12.11-.23.21-.45.33-.66.13-.24.25-.48.39-.71.07-.13.15-.26.23-.39.13-.21.25-.42.39-.62.15-.24.31-.48.48-.71.03-.06.08-.11.11-.17.18-.25.37-.49.55-.73.15-.2.31-.39.47-.59.24-.29.48-.57.73-.85.11-.12.22-.24.33-.36.29-.31.59-.61.9-.89.11-.11.23-.22.34-.32,0,0,.01-.01.03-.03.2-.18.41-.36.62-.54.25-.21.51-.42.77-.62h0c.25-.19.49-.38.75-.56.03-.02.05-.04.08-.05.26-.19.52-.37.79-.53.27-.18.56-.36.85-.53.21-.13.44-.25.66-.37.17-.09.33-.17.49-.26.2-.1.41-.2.61-.3.24-.12.49-.23.74-.33.6-.27,1.22-.5,1.85-.71.15-.05.29-.1.44-.15,0,0,.01,0,.03,0,.23-.07.47-.15.7-.21.67-.19,1.34-.34,2.03-.47.03,0,.05,0,.07-.01.3-.05.6-.1.9-.14.4-.06.81-.1,1.22-.13.27-.03.53-.05.8-.05.05,0,.11,0,.17,0,.34-.02.68-.03,1.02-.03s.68,0,1.02.03c.05,0,.11,0,.17,0,.27,0,.54.03.81.05.13,0,.25.02.37.03.26.03.52.05.78.09.32.04.64.09.96.15.02,0,.05,0,.07.01.57.1,1.12.23,1.67.37.16.05.32.09.49.13.19.05.39.11.57.17.15.05.31.09.45.15.03,0,.06.01.09.03.22.07.44.15.65.23.38.15.75.29,1.12.46.25.1.49.21.74.33.29.13.58.28.86.43.02,0,.04.01.06.03.29.15.57.31.85.47.27.15.53.32.79.49.2.13.4.26.59.39.11.07.22.15.33.23.66.47,1.29.97,1.9,1.51.23.2.45.41.67.62.14.12.27.25.4.39s.26.27.39.4c.26.27.51.55.75.83.12.14.24.28.36.43.16.19.32.39.47.58.19.24.37.48.54.73.05.07.1.14.15.21.14.19.27.39.39.58.15.23.29.45.43.69.09.14.17.28.25.43.15.26.3.53.44.8.09.17.18.35.26.52.03.05.06.11.09.17.05.11.11.22.16.33.11.23.21.46.31.69.13.31.26.63.37.94.08.22.16.43.23.65.25.74.47,1.5.64,2.27.07.33.15.67.21,1.01.06.34.11.68.16,1.02.03.26.07.52.09.78.01.12.03.24.03.37.03.27.04.54.05.81,0,.05,0,.11,0,.17.02.34.03.68.03,1.03Z" fill="#263e39"/>
    </g>
  </g>
  <g>
    <g>
      <path d="M67.38,23.35c-8.54,0-15.49,6.95-15.49,15.49,0,5.15,2.53,9.72,6.41,12.53,1.41,1.03,3.01,1.82,4.72,2.32.03,0,.05,0,.08-.01.31-.06.62-.1.94-.15.42-.06.84-.1,1.27-.14.28-.03.55-.05.83-.06.06,0,.12,0,.18,0,.35-.02.71-.03,1.06-.03s.71,0,1.06.03c.06,0,.12,0,.18,0,.28,0,.56.03.84.06.13,0,.26.02.39.03.27.03.54.06.81.1.33.04.67.1,1,.15.02,0,.05,0,.07.01,1.72-.5,3.31-1.29,4.73-2.32,3.88-2.81,6.41-7.38,6.41-12.53,0-8.54-6.95-15.49-15.48-15.49ZM71.48,50.14c-1.28.46-2.66.71-4.1.71s-2.82-.25-4.1-.71c-4.62-1.68-7.92-6.1-7.92-11.3,0-6.64,5.38-12.02,12.02-12.02s12.01,5.38,12.01,12.02c0,5.2-3.3,9.62-7.92,11.3Z" fill="#f5f5f5"/>
      <path d="M79.39,38.84c0,5.2-3.3,9.62-7.92,11.3-1.28.46-2.66.71-4.1.71s-2.82-.25-4.1-.71c-4.62-1.68-7.92-6.1-7.92-11.3,0-6.64,5.38-12.02,12.02-12.02s12.01,5.38,12.01,12.02Z" fill="#263e39"/>
    </g>
    <g>
      <path d="M76.45,51.37c-1.59-.56-3.26-.97-4.98-1.23-1.28.46-2.66.71-4.1.71s-2.82-.25-4.1-.71c-1.72.26-3.38.67-4.98,1.23-10.79,3.76-18.55,14.03-18.55,26.09v3.47h55.25v-3.47c0-12.06-7.76-22.33-18.55-26.09ZM43.22,77.45c0-.36,0-.71.03-1.07,0-.06,0-.12,0-.17.01-.28.03-.57.06-.85,0-.13.02-.26.03-.38.03-.27.06-.54.1-.81.05-.35.1-.71.17-1.06.06-.35.14-.7.21-1.05.17-.74.37-1.47.61-2.18.09-.29.19-.58.3-.86.12-.33.25-.66.39-.98.1-.24.21-.49.32-.72.06-.12.11-.24.17-.35.01-.04.03-.08.06-.12.11-.24.22-.46.35-.69.13-.25.26-.5.41-.74.08-.14.15-.27.24-.4.13-.22.26-.44.4-.64.16-.25.33-.5.5-.74.03-.06.08-.12.12-.18.19-.26.38-.51.58-.76.16-.21.32-.41.49-.61.25-.31.5-.6.76-.88.11-.12.23-.25.35-.37.31-.32.62-.63.94-.93.12-.12.24-.22.35-.33,0,0,.01-.01.03-.03.21-.19.42-.37.64-.56.26-.22.53-.44.8-.64h0c.26-.2.51-.4.78-.58.03-.02.06-.04.08-.06.27-.19.54-.38.83-.55.28-.19.58-.37.88-.55.22-.13.46-.26.69-.39.17-.09.34-.18.51-.27.21-.1.42-.21.64-.31.25-.12.51-.24.77-.35.62-.28,1.27-.52,1.92-.73.15-.06.31-.1.46-.15,0,0,.01,0,.03,0,.24-.08.49-.15.73-.21.69-.19,1.39-.35,2.11-.49.03,0,.05,0,.08-.01.31-.06.62-.1.94-.15.42-.06.84-.1,1.27-.14.28-.03.55-.05.83-.06.06,0,.12,0,.18,0,.35-.02.71-.03,1.06-.03s.71,0,1.06.03c.06,0,.12,0,.18,0,.28,0,.56.03.84.06.13,0,.26.02.39.03.27.03.54.06.81.1.33.04.67.1,1,.15.02,0,.05,0,.07.01.59.1,1.16.24,1.73.38.17.05.34.09.51.14.2.06.4.11.6.18.16.05.32.1.47.15.03,0,.06.01.09.03.23.08.46.16.68.24.4.15.78.31,1.16.48.26.1.51.22.77.35.31.14.6.29.89.45.02,0,.04.01.06.03.3.16.59.32.88.49.28.16.55.33.83.51.21.13.42.27.62.41.12.08.23.16.35.24.69.49,1.34,1.01,1.98,1.57.24.21.47.42.7.64.15.12.28.26.42.4.14.13.28.27.4.42.28.28.53.57.78.86.13.15.26.29.37.44.17.2.33.4.49.6.19.25.38.5.56.76.05.07.1.15.15.22.15.19.28.4.41.6.15.24.31.47.44.71.1.15.18.29.26.44.16.27.31.55.46.83.1.18.19.36.27.54.03.06.06.12.09.18.06.11.12.23.17.35.11.24.22.48.32.72.14.33.27.65.39.98.08.23.17.45.24.68.26.77.49,1.55.67,2.36.08.35.15.69.21,1.05.06.35.12.71.17,1.06.03.27.07.54.1.81.01.12.03.25.03.38.03.28.04.56.06.85,0,.06,0,.11,0,.17.02.35.03.71.03,1.07h-48.31Z" fill="#f5f5f5"/>
      <path d="M91.53,77.45h-48.31c0-.36,0-.71.03-1.07,0-.06,0-.12,0-.17.01-.28.03-.57.06-.85,0-.13.02-.26.03-.38.03-.27.06-.54.1-.81.05-.35.1-.71.17-1.06.06-.35.14-.7.21-1.05.17-.74.37-1.47.61-2.18.09-.29.19-.58.3-.86.12-.33.25-.66.39-.98.1-.24.21-.49.32-.72.06-.12.11-.24.17-.35.01-.04.03-.08.06-.12.11-.24.22-.46.35-.69.13-.25.26-.5.41-.74.08-.14.15-.27.24-.4.13-.22.26-.44.4-.64.16-.25.33-.5.5-.74.03-.06.08-.12.12-.18.19-.26.38-.51.58-.76.16-.21.32-.41.49-.61.25-.31.5-.6.76-.88.11-.12.23-.25.35-.37.31-.32.62-.63.94-.93.12-.12.24-.23.35-.33,0,0,.01-.01.03-.03.21-.19.42-.37.64-.56.26-.22.53-.44.8-.64h0c.26-.2.51-.4.78-.58.03-.02.06-.04.08-.06.27-.19.54-.38.83-.55.28-.19.58-.37.88-.55.22-.13.46-.26.69-.39.17-.09.34-.18.51-.27.21-.1.42-.21.64-.31.25-.12.51-.24.77-.35.62-.28,1.27-.52,1.92-.73.15-.06.31-.1.46-.15,0,0,.01,0,.03,0,.24-.08.49-.15.73-.21.69-.19,1.39-.35,2.11-.49.03,0,.05,0,.08-.01.31-.06.62-.1.94-.15.42-.06.84-.1,1.27-.14.28-.03.55-.05.83-.06.06,0,.12,0,.18,0,.35-.02.71-.03,1.06-.03s.71,0,1.06.03c.06,0,.12,0,.18,0,.28,0,.56.03.84.06.13,0,.26.02.39.03.27.03.54.06.81.1.33.04.67.1,1,.15.02,0,.05,0,.07.01.59.1,1.16.24,1.73.38.17.05.33.09.51.14.2.06.4.11.6.18.16.05.32.1.47.15.03,0,.06.01.09.03.23.08.46.16.68.24.4.15.78.31,1.16.48.26.1.51.22.77.35.31.14.6.29.89.45.02,0,.04.01.06.03.3.16.59.32.88.49.28.16.55.33.83.51.21.13.42.27.62.41.11.08.23.16.35.24.69.49,1.34,1.01,1.98,1.57.24.21.47.42.7.64.15.12.28.26.42.4s.27.28.4.42c.27.28.53.57.78.86.12.15.25.29.37.44.17.2.33.4.49.6.19.25.38.5.56.76.05.07.1.15.15.22.15.19.28.4.41.6.15.24.31.47.44.71.09.15.18.29.26.44.16.27.31.55.46.83.1.18.19.36.27.54.03.06.06.12.09.18.06.11.11.23.17.35.11.24.22.48.32.72.14.33.27.65.39.98.08.23.17.45.24.68.26.77.49,1.55.67,2.36.08.35.15.69.21,1.05.06.35.12.71.17,1.06.03.27.07.54.1.81.01.12.03.25.03.38.03.28.04.56.06.85,0,.06,0,.11,0,.17.02.35.03.71.03,1.07Z" fill="#263e39"/>
    </g>
  </g>
  <g>
    <g>
      <path d="M48.2,21.05c-9.74,0-17.67,7.92-17.67,17.67,0,5.88,2.89,11.09,7.32,14.29,1.61,1.18,3.43,2.08,5.39,2.65.03,0,.06,0,.09-.02.36-.06.71-.12,1.07-.17.47-.07.96-.12,1.45-.16.32-.03.63-.06.95-.06.06,0,.13,0,.21,0,.4-.02.81-.03,1.21-.03s.81,0,1.21.03c.06,0,.13,0,.21,0,.32,0,.64.03.96.06.15,0,.3.02.44.04.31.03.62.06.93.11.38.05.76.11,1.14.17.02,0,.06,0,.08.02,1.96-.57,3.78-1.47,5.39-2.65,4.42-3.2,7.31-8.42,7.31-14.29,0-9.74-7.92-17.67-17.66-17.67ZM52.87,51.61c-1.46.53-3.03.81-4.67.81s-3.22-.28-4.67-.81c-5.27-1.91-9.04-6.96-9.04-12.89,0-7.58,6.14-13.71,13.71-13.71s13.7,6.14,13.7,13.71c0,5.93-3.76,10.98-9.03,12.89Z" fill="#f5f5f5"/>
      <path d="M61.91,38.72c0,5.93-3.76,10.98-9.03,12.89-1.46.53-3.03.81-4.67.81s-3.22-.28-4.67-.81c-5.27-1.91-9.04-6.96-9.04-12.89,0-7.58,6.14-13.71,13.71-13.71s13.7,6.14,13.7,13.71Z" fill="#263e39"/>
    </g>
    <g>
      <path d="M58.55,53.01c-1.82-.64-3.72-1.11-5.68-1.4-1.46.53-3.03.81-4.67.81s-3.22-.28-4.67-.81c-1.96.29-3.86.76-5.68,1.4-12.31,4.29-21.16,16.01-21.16,29.76v3.95h63.02v-3.95c0-13.75-8.85-25.47-21.15-29.76ZM20.64,82.77c0-.41,0-.81.03-1.22,0-.07,0-.13,0-.2.02-.32.03-.65.06-.96,0-.15.02-.29.04-.43.03-.31.07-.62.11-.93.06-.4.12-.81.19-1.21.07-.4.16-.8.25-1.19.19-.85.43-1.68.7-2.48.1-.33.22-.66.34-.98.14-.38.28-.75.44-1.12.12-.28.24-.55.36-.82.06-.13.13-.27.19-.4.02-.05.04-.09.07-.14.13-.27.25-.53.4-.78.15-.28.3-.57.47-.85.09-.16.17-.31.27-.46.15-.25.3-.5.46-.74.18-.28.37-.57.57-.85.04-.07.09-.13.13-.21.21-.29.43-.59.66-.87.18-.24.36-.47.55-.7.28-.35.57-.68.87-1,.13-.14.26-.28.4-.43.35-.36.7-.72,1.07-1.06.13-.13.27-.25.4-.38,0,0,.02-.02.03-.03.24-.21.48-.43.74-.64.3-.25.6-.5.91-.74h0c.29-.23.59-.45.89-.66.03-.02.06-.05.09-.06.31-.22.62-.43.94-.63.32-.21.66-.43,1-.62.25-.15.52-.3.78-.44.2-.1.39-.21.59-.31.24-.12.48-.24.73-.36.28-.14.58-.27.88-.4.71-.32,1.45-.59,2.19-.84.17-.06.35-.12.52-.17,0,0,.02,0,.03,0,.27-.09.55-.17.83-.25.79-.22,1.59-.4,2.4-.55.03,0,.06,0,.09-.02.36-.06.71-.12,1.07-.17.47-.07.96-.12,1.45-.16.32-.03.63-.06.95-.06.06,0,.13,0,.21,0,.4-.02.81-.03,1.21-.03s.81,0,1.21.03c.06,0,.13,0,.21,0,.32,0,.64.03.96.06.15,0,.3.02.44.04.31.03.62.06.93.11.38.05.76.11,1.14.17.02,0,.06,0,.08.02.67.12,1.33.27,1.98.43.2.06.39.1.58.16.23.06.46.13.68.21.18.06.36.11.54.17.03,0,.07.02.1.03.26.09.52.18.77.27.45.17.89.35,1.33.55.29.12.59.25.88.4.35.16.69.33,1.02.51.02,0,.05.02.07.03.34.18.67.36,1,.56.32.18.63.38.94.58.24.15.47.31.7.47.13.09.26.18.4.28.78.55,1.53,1.15,2.25,1.79.28.24.54.48.8.74.17.14.32.3.47.46.16.15.32.31.46.47.32.32.61.65.89.98.15.17.29.33.43.51.19.23.38.46.55.69.22.28.43.57.64.86.06.08.12.17.17.25.17.22.32.46.47.69.17.27.35.54.51.81.11.17.21.33.3.51.18.31.36.63.52.95.11.21.21.41.31.62.04.06.07.13.1.21.07.13.13.26.19.4.13.27.25.55.36.82.16.37.31.74.44,1.12.09.26.19.51.28.77.3.88.55,1.77.76,2.69.09.4.17.79.25,1.19.07.4.13.81.19,1.21.04.31.08.62.11.93.02.14.03.28.04.43.03.32.05.64.06.96,0,.06,0,.13,0,.2.02.4.03.81.03,1.22H20.64Z" fill="#f5f5f5"/>
      <path d="M75.75,82.77H20.64c0-.41,0-.81.03-1.22,0-.07,0-.13,0-.2.02-.32.03-.65.06-.96,0-.15.02-.29.04-.43.03-.31.07-.62.11-.93.06-.4.12-.81.19-1.21.07-.4.16-.8.25-1.19.19-.85.43-1.68.7-2.48.1-.33.22-.66.34-.98.14-.38.28-.75.44-1.12.12-.28.24-.55.36-.82.06-.13.13-.27.19-.4.02-.05.04-.09.07-.14.13-.27.25-.53.4-.78.15-.28.3-.57.47-.85.09-.16.17-.31.27-.46.15-.25.3-.5.46-.74.18-.28.37-.57.57-.85.04-.07.09-.13.13-.21.21-.29.43-.59.66-.87.18-.24.36-.47.55-.7.28-.35.57-.68.87-1,.13-.14.26-.28.4-.43.35-.36.7-.72,1.07-1.06.13-.13.27-.26.4-.38,0,0,.02-.02.03-.03.24-.21.48-.43.74-.64.3-.25.6-.5.91-.74h0c.29-.23.59-.45.89-.66.03-.02.06-.05.09-.06.31-.22.62-.43.94-.63.32-.21.66-.43,1-.62.25-.15.52-.3.78-.44.2-.1.39-.21.59-.31.24-.12.48-.24.73-.36.28-.14.58-.27.88-.4.71-.32,1.45-.59,2.19-.84.17-.06.35-.12.52-.17,0,0,.02,0,.03,0,.27-.09.55-.17.83-.25.79-.22,1.59-.4,2.4-.55.03,0,.06,0,.09-.02.36-.06.71-.12,1.07-.17.47-.07.96-.12,1.45-.16.32-.03.63-.06.95-.06.06,0,.13,0,.21,0,.4-.02.81-.03,1.21-.03s.81,0,1.21.03c.06,0,.13,0,.21,0,.32,0,.64.03.96.06.15,0,.3.02.44.04.31.03.62.06.93.11.38.05.76.11,1.14.17.02,0,.06,0,.08.02.67.12,1.33.27,1.98.43.19.06.38.1.58.16.23.06.46.13.68.21.18.06.36.11.54.17.03,0,.07.02.1.03.26.09.52.18.77.27.45.17.89.35,1.33.55.29.12.59.25.88.4.35.16.69.33,1.02.51.02,0,.05.02.07.03.34.18.67.36,1,.56.32.18.63.38.94.58.24.15.47.31.7.47.13.09.26.18.4.28.78.55,1.53,1.15,2.25,1.79.27.24.54.48.8.74.17.14.32.3.47.46s.31.32.46.47c.31.32.6.65.89.98.14.17.28.33.43.51.19.23.38.46.55.69.22.28.43.57.64.86.06.08.12.17.17.25.17.22.32.46.47.69.17.27.35.54.51.81.1.17.21.33.3.51.18.31.36.63.52.95.11.21.21.41.31.62.04.06.07.13.1.21.06.13.13.26.19.4.13.27.25.55.36.82.16.37.31.74.44,1.12.09.26.19.51.28.77.3.88.55,1.77.76,2.69.09.4.17.79.25,1.19.07.4.13.81.19,1.21.04.31.08.62.11.93.02.14.03.28.04.43.03.32.05.64.06.96,0,.06,0,.13,0,.2.02.4.03.81.03,1.22Z" fill="#263e39"/>
    </g>
  </g>
</svg>