<?xml version="1.0" encoding="UTF-8"?>
<svg id="Layer_1" data-name="Layer 1" xmlns="http://www.w3.org/2000/svg" viewBox="0 0 100 100">
  <path d="M55.32,61.33c-.29-.31-3.59,1.33-4.3,1.51-8.47,2.16-18.08-3.73-18.95-12.65-.11-1.14.28-4.1-.16-4.82-.12-.19-3.12-1.95-3.79-2.52-9.13-7.82-5.55-23.34,6.27-26.23,1.18-.29,4.88-.39,5.33-.66s1.43-2.57,2-3.31c4.96-6.46,13.87-7.58,20.71-3.44.69.42,2.21,2.08,2.78,2.22.45.11,3.48-.88,4.57-.96,7.33-.51,14.96,4.47,16.31,11.96.29,1.59-.15,6.25.31,7,.14.23,3.03,1.82,3.71,2.44,9.89,9.09,3.87,26.03-9.67,26.48-2.76.09-4.93-.88-7.49-.85l-10.31,12.63v22.6s-.46.5-.5.5h-6.31s-.5-.46-.5-.5v-31.4ZM62.63,58.67v4.98c.73-.5,3.64-3.9,3.66-4.48l-3.66-.5Z" fill="#263e39"/>
  <g>
    <path d="M56.98,34.91c2.76,0,7.57,4.77,5.95,7.44L12.3,92.97c-.3.18-.63.26-1,.26-2.88,0-7.42-4.95-6.05-7.29l51.17-50.96c.17-.05.36-.08.56-.08M56.98,32.91h0c-.39,0-.77.05-1.12.16l-.49.14-.36.36L3.84,84.52l-.18.18-.13.22c-.82,1.4-.68,3.22.41,5.12,1.46,2.55,4.61,5.18,7.36,5.18.74,0,1.42-.18,2.02-.53l.22-.13.18-.18,50.63-50.63.17-.17.12-.2c.91-1.49.82-3.38-.27-5.31-1.4-2.49-4.62-5.17-7.39-5.17h0Z" fill="#f5f5f5"/>
    <path d="M62.93,42.34L12.3,92.97c-2.63,1.56-8.59-4.4-7.05-7.04l51.17-50.96c2.59-.77,8.25,4.51,6.51,7.36Z" fill="#263e39"/>
  </g>
  <path d="M60.39,41l-13.6,13.58-3.5-3.5c2.56-1.71,12.08-13.29,13.9-13.77,1.24-.32,3.76,2.56,3.2,3.69Z" fill="#f5f5f5"/>
  <path d="M66.3,26.12c-3.46-.71-7.98-2.23-10.35,1.3l-2.78,4.63c.02-3.5,2.13-6.65-.88-9.51l-5.06-3.2c2.55-.09,5.44,1.11,7.94.1,2.28-.92,2.96-4.97,4.77-6.46-.11,2.79-1.65,5.41-.32,8.16,1.2,2.49,4.94,3.05,6.68,4.97Z" fill="#87bd45"/>
  <path d="M80.8,32.93c.49.49-2.09,2.65-2.47,3.25-2.35,3.79.51,5.21,1.62,8.61-3.95-4.38-6.57-4.83-11.43-1.27-.41-.43,3.22-3.79,3.38-5.33.22-2.1-1.65-4.35-2.54-6.1.39-.39,3.47,2.71,4.35,3.05,2.87,1.1,4.68-1.02,7.08-2.21Z" fill="#87bd45"/>
  <path d="M44.68,28.98c.05,1.11-1.17,1.49-1.5,2.52-.88,2.74.72,3.3,1.5,5.53-.14.15-2.53-2.05-3.63-2.12-1.37-.09-3.59,2.03-4,1.69,2.42-3.13,1.95-4.72-.42-7.62.4-.36,2.72,2.04,4.02,2.07,1.41.03,2.86-1.42,4.03-2.07Z" fill="#87bd45"/>
  <path d="M65.19,50.62c.65.65,2.4.51,3.29.53.21,1.47-2.09.72-2.75,2.12-.44.92-.15,2.01-.22,2.97-1.21-.56-.77-2.17-1.94-2.92-.96-.61-2.08-.48-3.13-.47.04-.71,1.18-.49,1.85-.9,1.76-1.09,1.66-2.24,1.54-4.18.97.31.76,2.26,1.37,2.86Z" fill="#87bd45"/>
</svg>