<?xml version="1.0" encoding="UTF-8"?>
<svg id="Layer_1" data-name="Layer 1" xmlns="http://www.w3.org/2000/svg" viewBox="0 0 88.04 82.32">
  <path d="M52.37,57.72h35.67L61.84,12.37l-5.05,8.75L44.02,0l-12.78,21.11-5.05-8.75L0,57.72h52.37ZM44.02,43.25h0Z" fill="#88bd47"/>
  <path d="M67.57,44.22c6.2-10.74,2.51-24.53-8.24-30.74-10.74-6.2-24.53-2.51-30.74,8.24-5.34,9.26-3.34,20.77,4.19,27.74l-14.64,25.36c-1.38,2.39-.56,5.45,1.83,6.83s5.45.56,6.83-1.83l14.64-25.36c9.81,3.03,20.78-.99,26.12-10.24h0ZM41.84,43.8c-5.97-3.45-8.02-11.11-4.58-17.08,3.45-5.97,11.11-8.02,17.08-4.58s8.02,11.11,4.58,17.08-11.11,8.02-17.08,4.58Z" fill="#f5f5f5"/>
</svg>