<?xml version="1.0" encoding="UTF-8"?>
<svg id="Layer_1" data-name="Layer 1" xmlns="http://www.w3.org/2000/svg" viewBox="0 0 100 100">
  <path d="M4.12,5v90h16.74v-19.87h10.14v19.87h16.74V5H4.12ZM20.86,66.58h-10.13v-10.13h10.13v10.13ZM20.86,44.58h-10.13v-10.13h10.13v10.13ZM20.86,22.59h-10.13v-10.13h10.13v10.13ZM41.12,66.58h-10.13v-10.13h10.13v10.13ZM41.12,44.58h-10.13v-10.13h10.13v10.13ZM41.12,22.59h-10.13v-10.13h10.13v10.13Z" fill="#263e39"/>
  <path d="M52.27,25.91v69.09h16.75v-19.87h10.13v19.87h16.74V25.91h-43.61ZM69.02,66.58h-10.13v-10.13h10.13v10.13ZM69.02,44.58h-10.13v-10.13h10.13v10.13ZM89.27,66.58h-10.13v-10.13h10.13v10.13ZM89.27,44.58h-10.13v-10.13h10.13v10.13Z" fill="#263e39"/>
</svg>