<?xml version="1.0" encoding="UTF-8"?>
<svg id="Layer_1" data-name="Layer 1" xmlns="http://www.w3.org/2000/svg" viewBox="0 0 100 100">
  <path d="M29.01,38.13c0,.37.01.72.03,1.08-1.1-.1-2.15-.34-3.15-.7-4.82-1.75-8.25-6.35-8.25-11.77,0-6.91,5.6-12.52,12.52-12.52,4.61,0,8.62,2.49,10.81,6.19-7.01,2.83-11.95,9.71-11.95,17.72Z" fill="#263e39"/>
  <path d="M36.92,53.59c-7.09,2.48-13.12,7.23-17.21,13.37H5c0-.38.01-.75.03-1.11v-.18c.02-.29.03-.6.06-.88,0-.14.02-.27.03-.4.03-.28.06-.56.1-.84.05-.37.11-.74.17-1.1.06-.37.15-.74.23-1.09.17-.77.39-1.53.64-2.27.09-.3.19-.59.3-.89.13-.35.27-.69.41-1.02.11-.26.22-.51.34-.76.05-.12.11-.24.17-.36.01-.04.03-.09.06-.13.11-.25.23-.49.36-.71.14-.26.27-.52.42-.78.09-.14.16-.28.25-.41.14-.24.27-.45.42-.67.16-.26.34-.53.52-.78.03-.06.09-.12.12-.18.19-.27.4-.54.61-.8.16-.22.32-.42.5-.63.26-.32.52-.63.8-.92.11-.13.24-.26.36-.39.31-.34.64-.66.97-.97.12-.12.25-.24.37-.35.01,0,.02-.01.03-.02.22-.19.44-.39.67-.58.27-.24.55-.45.83-.67h0c.27-.22.54-.42.81-.62.03-.02.05-.04.09-.05.28-.21.56-.4.87-.57.29-.19.61-.39.91-.57.24-.14.48-.27.71-.4.18-.1.36-.19.54-.28.22-.11.43-.22.66-.32.26-.13.53-.25.8-.37.65-.28,1.32-.54,2-.77.16-.05.31-.11.48-.15.01-.01.02-.01.03-.01.25-.08.51-.16.76-.23.72-.19,1.45-.37,2.2-.5.02-.01.04-.01.08-.02.32-.05.65-.11.97-.15.43-.06.88-.11,1.32-.14.29-.03.58-.05.87-.05.06-.01.13-.01.19-.01.11-.01.21-.01.31-.01.95,4.82,3.71,9,7.55,11.77Z" fill="#263e39"/>
  <path d="M81.87,38.26c0,5.63-3.57,10.41-8.57,12.22-1.38.5-2.88.77-4.44.77s-3.05-.27-4.42-.77c-.44-.16-.88-.35-1.3-.57,2.55-3.25,4.08-7.34,4.08-11.78s-1.47-8.38-3.94-11.61c1.69-.81,3.58-1.27,5.58-1.27,7.18,0,13,5.82,13,13Z" fill="#263e39"/>
  <path d="M95,80.02h-13.28c-1.93-11.28-9.4-20.67-19.5-25.27.26-.08.53-.14.79-.19.39-.09.77-.17,1.16-.24.03-.01.05-.01.08-.02.35-.05.68-.11,1.02-.15.45-.06.91-.11,1.37-.15.3-.03.59-.05.9-.05.06-.01.13-.01.19-.01.39-.02.77-.03,1.15-.03s.77.01,1.15.03c.06,0,.13,0,.19.01.3,0,.61.02.91.05.14.01.29.02.42.04.29.02.58.05.88.1.36.04.72.11,1.08.16.02.01.05.01.08.02.64.11,1.25.25,1.87.41.18.05.37.1.55.15.22.05.43.12.64.19.17.05.35.11.52.16.02.01.06.02.1.03.25.09.49.17.74.26.42.16.84.32,1.25.51.28.12.55.25.83.38.34.15.65.31.96.49.03.01.05.01.08.03.31.17.64.35.95.53.29.17.59.36.89.55.23.14.45.29.67.44.12.08.25.17.38.26.74.52,1.45,1.09,2.13,1.7.26.22.51.45.76.69.16.13.3.28.45.43.15.15.29.3.43.45.29.3.57.62.84.93.14.15.27.31.41.48.17.22.36.43.52.65.22.27.41.54.61.82.05.08.12.16.17.24.15.22.29.43.44.66.16.25.32.51.48.77.1.15.19.31.28.48.17.29.35.61.5.9.11.21.21.4.29.59.04.05.06.12.1.19.06.12.12.24.18.37.12.26.24.52.35.78.15.36.29.71.41,1.06.1.25.18.49.27.74.28.83.52,1.68.71,2.55.09.37.17.75.24,1.12.06.39.13.77.17,1.16.04.29.08.58.11.88.02.13.03.27.04.41.02.29.04.61.05.91.01.06.01.12.01.19.02.38.03.76.03,1.15Z" fill="#263e39"/>
  <path d="M62.95,38.13c0,.67-.04,1.33-.13,1.98-.03.21-.06.4-.1.61-.08.4-.16.79-.26,1.18-.02.1-.04.18-.08.28-.21.74-.47,1.45-.78,2.13-.52,1.13-1.18,2.17-1.95,3.13-.12.15-.25.3-.38.44-.12.15-.26.3-.4.44-.18.21-.38.4-.57.56-.18.18-.36.35-.55.51-.06.06-.12.12-.18.15-.19.16-.4.32-.61.48-.21.17-.43.32-.65.47-.18.13-.38.25-.57.36-.21.13-.42.26-.65.37-.22.13-.43.24-.66.34-.1.05-.19.1-.29.13-.31.15-.64.28-.96.4-.56.21-1.12.37-1.72.5-.19.04-.39.09-.58.12-.12.03-.25.05-.38.06-.13.03-.27.05-.41.06-.64.09-1.3.13-1.97.13-1.77,0-3.48-.3-5.05-.88-.36-.13-.7-.27-1.05-.43-.34-.15-.66-.31-.97-.49-.02,0-.04-.01-.05-.02-.26-.14-.51-.29-.76-.45-.75-.47-1.46-1-2.11-1.61-.18-.15-.37-.32-.54-.52-.06-.05-.14-.12-.21-.19-.13-.14-.26-.28-.39-.43-.11-.12-.22-.25-.32-.38-.4-.49-.77-1-1.1-1.53-.14-.22-.27-.43-.39-.65-.15-.27-.3-.55-.43-.84-.24-.49-.44-.98-.62-1.49-.12-.31-.22-.64-.3-.96-.01-.03-.02-.06-.03-.11-.04-.17-.09-.36-.13-.54-.03-.12-.05-.24-.08-.36-.09-.45-.16-.91-.21-1.37-.03-.27-.05-.55-.06-.82-.01-.24-.02-.49-.02-.74s.01-.52.02-.78c.01-.22.02-.43.04-.64.05-.55.14-1.09.25-1.62.04-.21.09-.4.14-.61.13-.53.29-1.05.49-1.56.05-.17.13-.35.21-.51.24-.59.52-1.17.84-1.71.09-.16.18-.31.28-.47.09-.15.18-.3.29-.45.21-.3.41-.58.64-.87.21-.27.42-.52.65-.77l.05-.05c.21-.23.41-.44.64-.65.31-.31.65-.61,1-.88.25-.21.51-.4.77-.58,0-.01.01-.01.03-.02.29-.21.58-.4.9-.57.3-.18.62-.36.94-.52.29-.15.58-.28.89-.41.03-.02.06-.03.11-.04.27-.11.54-.22.82-.31.01-.01.02-.01.04-.02.22-.06.43-.14.66-.21.11-.03.22-.06.32-.09.53-.14,1.08-.26,1.63-.34.34-.05.67-.09,1.02-.11.04-.01.09-.02.14-.01.34-.03.67-.04,1.02-.04.26,0,.51.01.76.02.77.03,1.5.13,2.23.28.23.04.45.1.68.15.51.13,1,.28,1.47.45.22.09.42.16.63.26.23.09.44.18.66.29.22.11.43.22.64.32.22.12.42.24.62.36.29.17.57.36.83.55.16.11.32.23.48.35.25.18.49.39.72.59.48.4.92.84,1.34,1.31.19.21.38.43.56.66.01.02.02.03.04.05.66.84,1.23,1.76,1.71,2.74.21.43.4.88.56,1.33.16.44.3.89.42,1.34.06.28.13.55.18.83.04.23.09.44.12.67.03.23.06.45.09.68.03.27.05.54.06.81.01.26.02.51.02.77Z" fill="#263e39"/>
  <path d="M77.93,85.78H18.31c0-.44.01-.89.03-1.32,0-.08,0-.15.01-.22.02-.35.03-.7.08-1.04,0-.16.02-.32.04-.48.03-.34.08-.66.12-1,.05-.44.13-.88.21-1.31.08-.44.16-.87.26-1.3.21-.91.47-1.81.76-2.68.11-.36.24-.71.37-1.06.15-.41.3-.81.48-1.21.13-.29.26-.6.39-.89.08-.14.14-.29.21-.42.02-.05.04-.11.08-.16.14-.29.28-.57.43-.84.16-.3.32-.62.51-.92.06-.13.14-.25.23-.38.02-.03.04-.08.06-.11.16-.28.32-.54.49-.8.21-.3.41-.62.62-.92.04-.08.11-.14.15-.22.23-.31.47-.64.7-.94.16-.22.32-.41.5-.62.03-.04.06-.1.11-.14.3-.38.62-.74.94-1.08.13-.15.28-.31.42-.47.38-.39.77-.78,1.16-1.15.15-.14.29-.28.43-.41.01-.01.02-.01.04-.03.25-.23.52-.47.79-.69.32-.27.65-.54.98-.8h.01c.31-.24.63-.49.95-.71.04-.02.08-.05.11-.06.34-.24.67-.48,1.02-.69.35-.23.71-.45,1.08-.67.28-.16.57-.32.85-.48.22-.12.42-.23.63-.34.26-.13.53-.26.79-.39.31-.15.63-.29.95-.42.77-.35,1.57-.65,2.37-.91.18-.06.38-.13.56-.19h.03c.29-.1.61-.19.9-.27.85-.24,1.72-.43,2.61-.59.03-.01.05-.01.09-.02.39-.06.78-.13,1.16-.17.52-.09,1.04-.13,1.57-.17.35-.03.68-.06,1.03-.08h.22c.44-.03.88-.03,1.31-.03s.88,0,1.31.03h.23c.35.01.69.04,1.04.08.1.01.19.01.28.02h.01c.06.01.13.01.18.02.34.03.67.06,1,.12.27.03.55.08.82.12.14.02.27.04.41.06.03.01.06.01.09.02.72.13,1.44.29,2.14.47.21.06.41.12.63.17.02,0,.03.01.05.02h.01c.23.05.44.13.67.21.11.03.21.06.3.1.1.02.18.05.27.09.04.01.09.02.12.03.28.1.56.19.83.29.49.19.97.38,1.44.6.31.13.64.27.95.42.38.17.75.36,1.1.56.02,0,.05.01.08.03.37.19.72.39,1.08.61.35.19.69.41,1.02.63.26.16.52.34.77.5.14.1.28.21.42.3.85.6,1.67,1.24,2.44,1.94.29.25.58.52.87.79.17.16.34.32.51.5s.34.35.5.52c.34.34.65.69.96,1.06.16.17.31.36.47.54.21.25.41.5.59.75.25.31.48.62.69.93.06.09.13.18.19.28.17.24.34.49.51.74.18.29.37.58.54.89.11.17.23.36.32.54.19.34.39.69.56,1.03.12.23.24.44.34.67.04.06.08.14.11.23.08.13.14.28.21.42.14.29.28.59.4.89.17.41.34.81.48,1.21.11.28.21.55.3.83.32.95.59,1.93.82,2.91.06.3.13.6.18.9.02.13.05.26.08.4.08.43.15.87.21,1.31.04.34.09.66.12,1,.02.15.03.31.04.48.02.18.03.38.04.57.01.15.02.31.03.47v.22c.03.43.04.88.04,1.32Z" fill="#263e39"/>
</svg>