<?xml version="1.0" encoding="UTF-8"?>
<svg id="Layer_1" data-name="Layer 1" xmlns="http://www.w3.org/2000/svg" viewBox="0 0 100 100">
  <g>
    <path d="M78.64,21.36c-7.65-7.65-17.82-11.86-28.64-11.86-22.33,0-40.5,18.17-40.5,40.5,0,10.82,4.21,20.99,11.86,28.64l3.54,3.54,3.54-3.54,50.21-50.21,3.54-3.54-3.54-3.54h-.01Z" fill="#467f36"/>
    <path d="M85.5,50c0,19.61-15.89,35.5-35.5,35.5-9.8,0-18.68-3.98-25.1-10.4l50.21-50.21c6.42,6.42,10.4,15.31,10.4,25.1h-.01Z" fill="#589944"/>
    <path d="M50,15c19.33,0,35,15.67,35,35s-15.67,35-35,35S15,69.33,15,50,30.67,15,50,15M50,5C25.19,5,5,25.19,5,50s20.19,45,45,45,45-20.19,45-45S74.81,5,50,5h0Z" fill="#fff"/>
  </g>
  <path d="M34.08,24.79v50.43h12.22v-14.5h7.39v14.5h12.22V24.79h-31.83ZM46.31,54.47h-7.39v-7.39h7.39v7.39ZM46.31,38.42h-7.39v-7.39h7.39v7.39ZM61.09,54.47h-7.39v-7.39h7.39v7.39ZM61.09,38.42h-7.39v-7.39h7.39v7.39Z" fill="#f5f5f5"/>
</svg>