<?xml version="1.0" encoding="UTF-8"?>
<svg id="Layer_1" xmlns="http://www.w3.org/2000/svg" version="1.1" viewBox="0 0 100 100">
  <!-- Generator: Adobe Illustrator 29.5.1, SVG Export Plug-In . SVG Version: 2.1.0 Build 141)  -->
  <defs>
    <style>
      .st0 {
        fill: #f5f5f5;
      }

      .st1 {
        fill: #88bd47;
      }
    </style>
  </defs>
  <path class="st1" d="M58.35,61.33h35.67l-26.19-45.35-5.05,8.75L50,3.61l-12.78,21.11-5.05-8.75L5.98,61.33h52.37ZM50,46.86h0Z"/>
  <path class="st0" d="M73.55,47.82c6.2-10.74,2.51-24.53-8.24-30.74-10.74-6.2-24.53-2.51-30.74,8.24-5.34,9.26-3.34,20.77,4.19,27.74l-14.64,25.36c-1.38,2.39-.56,5.45,1.83,6.83s5.45.56,6.83-1.83l14.64-25.36c9.81,3.03,20.78-.99,26.12-10.24h0ZM47.82,47.4c-5.97-3.45-8.02-11.11-4.58-17.08,3.45-5.97,11.11-8.02,17.08-4.58s8.02,11.11,4.58,17.08-11.11,8.02-17.08,4.58Z"/>
</svg>