<?xml version="1.0" encoding="UTF-8"?>
<svg id="Layer_1" data-name="Layer 1" xmlns="http://www.w3.org/2000/svg" viewBox="0 0 100 100">
  <path d="M66.86,31.28h-8.39v10.94h8.39c2.16,0,3.92,1.76,3.92,3.92v33.7c0,2.17-1.76,3.93-3.92,3.93h-33.71c-2.16,0-3.92-1.76-3.92-3.93v-33.7c0-2.16,1.76-3.92,3.92-3.92h8.39v-10.94h-8.39c-8.19,0-14.85,6.67-14.85,14.86v33.7c0,8.19,6.66,14.86,14.85,14.86h33.71c8.19,0,14.85-6.67,14.85-14.86v-33.7c0-8.19-6.66-14.86-14.85-14.86Z" fill="#263e39"/>
  <path d="M67.43,26.64c-1.07,1.06-2.47,1.6-3.87,1.6s-2.8-.54-3.86-1.6l-4.24-4.24v35.12c0,3.02-2.44,5.47-5.46,5.47s-5.47-2.45-5.47-5.47V22.4l-4.23,4.24c-1.07,1.06-2.47,1.6-3.87,1.6s-2.8-.54-3.86-1.6c-2.14-2.14-2.14-5.6,0-7.74l11.92-11.92c1.52-1.52,3.51-2.28,5.51-2.28s3.98.76,5.5,2.28l11.93,11.92c2.13,2.14,2.13,5.6,0,7.74Z" fill="#263e39"/>
</svg>