<?xml version="1.0" encoding="UTF-8"?>
<svg id="Layer_1" data-name="Layer 1" xmlns="http://www.w3.org/2000/svg" viewBox="0 0 100 100">
  <g>
    <circle cx="50" cy="26.36" r="21.36" fill="#232f29"/>
    <path d="M91.08,71.75l-2.67-2.26,2.67-2.25c1.63-1.38,2.25-3.58,1.6-5.6-1.12-3.44-2.93-6.55-5.37-9.25-.99-1.09-2.4-1.71-3.87-1.71-.6,0-1.19.1-1.76.3l-3.33,1.19-.63-3.46c-.38-2.09-1.98-3.72-4.06-4.16-1.75-.37-3.54-.56-5.34-.56s-3.6.19-5.35.56c-2.08.44-3.67,2.08-4.06,4.17l-.63,3.45-3.33-1.19c-.56-.2-1.15-.3-1.75-.3-1.32,0-2.6.5-3.56,1.39-23.54.19-42.57,19.34-42.57,42.93h85.86c0-4.66-.74-9.14-2.12-13.34.76-1.37,1.38-2.81,1.87-4.31.65-2.02.03-4.22-1.6-5.6ZM88.91,76.13c-.04.13-.09.27-.14.4-.94,2.74-2.43,5.25-4.39,7.41-.24.27-.59.41-.94.41-.15,0-.29-.02-.43-.07l-4.89-1.74c-.28-.1-.57-.15-.85-.15-1.05,0-2.03.65-2.4,1.69-.05.12-.08.26-.11.39l-.93,5.09c-.09.51-.48.91-.99,1.01-1.47.32-2.99.47-4.52.47s-3.05-.15-4.53-.47c-.5-.11-.89-.51-.99-1.01l-.93-5.09c-.03-.15-.07-.3-.12-.44-.05-.14-.12-.27-.19-.4-.06-.1-.13-.19-.2-.28-.11-.14-.23-.27-.37-.38-.09-.07-.18-.14-.27-.19-.07-.05-.15-.09-.24-.13-.21-.11-.43-.18-.66-.22-.15-.03-.3-.04-.45-.04s-.3.02-.46.04c-.13.03-.27.06-.4.11l-4.88,1.74c-.14.05-.29.07-.43.07-.35,0-.7-.14-.95-.41-2.04-2.26-3.59-4.91-4.53-7.81-.16-.49,0-1.02.39-1.36l3.96-3.34c1.07-.91,1.2-2.51.29-3.58-.09-.1-.19-.2-.29-.29l-3.96-3.34c-.39-.34-.55-.87-.39-1.36.94-2.9,2.49-5.55,4.53-7.81.14-.15.32-.27.51-.33.14-.06.29-.09.44-.09.14,0,.29.03.43.08l4.88,1.74c.28.1.57.15.86.15,1.04,0,2.02-.65,2.4-1.69.04-.13.08-.26.1-.39l.14-.75.79-4.34c.1-.51.49-.91.99-1.01,1.48-.32,2.99-.48,4.53-.48s3.05.16,4.52.48c.51.1.9.5.99,1.01l.93,5.09c.06.3.17.58.31.83h.01c.07.13.16.25.25.36.19.22.42.41.67.55.11.06.22.11.33.16.08.04.17.06.26.08.22.07.44.1.67.1.16,0,.31-.02.46-.05.14-.02.27-.06.4-.1l4.89-1.74c.14-.05.28-.08.43-.08.18,0,.35.04.51.11.16.07.31.18.43.31,2.05,2.26,3.59,4.91,4.53,7.81.16.49.01,1.02-.38,1.36l-3.96,3.34c-.34.28-.58.64-.73,1.03-.32.84-.18,1.82.44,2.55.08.1.18.2.29.29l2.73,2.3,1.23,1.04c.39.34.54.87.38,1.36Z" fill="#232f29"/>
  </g>
  <path d="M68.32,63.21c-3.48,0-6.29,2.81-6.29,6.28s2.81,6.29,6.29,6.29,6.28-2.81,6.28-6.29-2.81-6.28-6.28-6.28ZM68.32,71.83c-1.29,0-2.33-1.05-2.33-2.34s1.04-2.33,2.33-2.33,2.33,1.05,2.33,2.33-1.05,2.34-2.33,2.34ZM68.32,63.21c-3.48,0-6.29,2.81-6.29,6.28s2.81,6.29,6.29,6.29,6.28-2.81,6.28-6.29-2.81-6.28-6.28-6.28ZM68.32,71.83c-1.29,0-2.33-1.05-2.33-2.34s1.04-2.33,2.33-2.33,2.33,1.05,2.33,2.33-1.05,2.34-2.33,2.34ZM68.32,63.21c-3.48,0-6.29,2.81-6.29,6.28s2.81,6.29,6.29,6.29,6.28-2.81,6.28-6.29-2.81-6.28-6.28-6.28ZM68.32,71.83c-1.29,0-2.33-1.05-2.33-2.34s1.04-2.33,2.33-2.33,2.33,1.05,2.33,2.33-1.05,2.34-2.33,2.34Z" fill="#232f29"/>
</svg>