<?xml version="1.0" encoding="UTF-8"?>
<svg id="Layer_1" data-name="Layer 1" xmlns="http://www.w3.org/2000/svg" viewBox="0 0 100 100">
  <path d="M82.17,72.61c-1.45,10.14-18.3,16.25-30.97,15.71-10.49-.44-25.84-5.77-27.38-15.61-.43-2.79,1.28-5.75,4.04-8.62,5.55,7.93,14.74,13.12,25.14,13.12s19.47-5.13,25.03-12.97c2.81,2.77,4.54,5.64,4.15,8.36Z" fill="#263e39"/>
  <circle cx="52.63" cy="46.42" r="26.82" fill="#263e39"/>
  <path d="M74.39,40.38c-.6,0-1.16-.37-1.36-.97-2.51-7.3-8.76-12.73-16.33-14.18-.78-.15-1.29-.9-1.14-1.68.15-.78.9-1.3,1.68-1.14,8.58,1.64,15.67,7.8,18.51,16.07.26.75-.14,1.57-.89,1.83-.15.05-.31.08-.47.08Z" fill="#f5f5f5"/>
  <g>
    <path d="M42.9,56.91c-.35.27-.91.29-1.21-.08-1.48-2.85-2.4-6.41-4-9.15-2.46-4.19-8.47-5.07-12.47-7.33-.63-.58-.28-1.07.3-1.45,2.47-1.59,6.49-2.42,9.14-4.06,3.94-2.45,4.86-8.24,6.96-12.13.26-.47.87-.49,1.25-.2,1.51,2.75,2.45,5.99,3.91,8.76,2.75,5.25,8.07,4.87,12.35,7.63.58.37.93.87.3,1.45-2.82,1.52-6.42,2.47-9.15,4.05-4.26,2.48-5.09,8.48-7.38,12.51Z" fill="#87bd45"/>
    <path d="M34.02,25.38c.11.17-.02.45-.17.62-.49.53-3.49,1.42-4.41,2.02-1.99,1.3-2.05,4.23-3.53,5.92-1.35-1.75-1.47-4.53-3.42-5.85-1.18-.8-3.23-1.19-4.29-1.96-.18-.13-.43-.17-.41-.48-.06-.36.14-.25.35-.36,2.07-1.07,4.53-1.33,5.75-3.53.37-.67,1.5-4.11,2.02-4.22.31-.07.35.24.45.44.69,1.31,1.43,3.98,2.4,4.91.91.88,5.09,2.27,5.26,2.51Z" fill="#87bd45"/>
    <path d="M37.86,11.64c.7.82.74,1.97,1.51,2.77.81.84,1.99.88,2.86,1.6-.87.72-2.05.76-2.86,1.6s-.81,1.95-1.51,2.77c-.66-.88-.78-2.08-1.6-2.86s-1.95-.81-2.77-1.51c.82-.7,1.97-.74,2.77-1.51s.94-1.98,1.6-2.86Z" fill="#87bd45"/>
  </g>
</svg>